<?xml version="1.0" standalone="no"?><!DOCTYPE svg PUBLIC "-//W3C//DTD SVG 1.1//EN" "http://www.w3.org/Graphics/SVG/1.1/DTD/svg11.dtd"><svg t="1649398797739" class="icon" viewBox="0 0 1024 1024" version="1.1" xmlns="http://www.w3.org/2000/svg" p-id="3171" xmlns:xlink="http://www.w3.org/1999/xlink" width="64" height="64"><defs><style type="text/css"></style></defs><path d="M668.586667 582.826667a26.88 26.88 0 0 0-9.813334-36.266667 298.666667 298.666667 0 0 0-69.546666-28.16 190.72 190.72 0 0 0 85.333333-158.293333 186.026667 186.026667 0 1 0-372.053333 0 189.44 189.44 0 0 0 85.333333 158.293333A290.56 290.56 0 0 0 170.666667 798.72a26.453333 26.453333 0 0 0 26.453333 26.453333 26.453333 26.453333 0 0 0 26.453333-26.453333 237.653333 237.653333 0 0 1 237.226667-237.226667h56.32a235.52 235.52 0 0 1 117.333333 31.146667 26.453333 26.453333 0 0 0 34.133334-9.813333zM353.706667 360.106667a133.12 133.12 0 1 1 133.12 136.533333 135.253333 135.253333 0 0 1-133.12-136.533333zM810.666667 710.4h-79.36v-79.36h-53.333334v79.36h-79.36v53.333333h79.36v79.36h53.333334V763.733333H810.666667v-53.333333z" fill="#757575" p-id="3172"></path></svg>