<?xml version="1.0" standalone="no"?><!DOCTYPE svg PUBLIC "-//W3C//DTD SVG 1.1//EN" "http://www.w3.org/Graphics/SVG/1.1/DTD/svg11.dtd"><svg t="1648476997044" class="icon" viewBox="0 0 1024 1024" version="1.1" xmlns="http://www.w3.org/2000/svg" p-id="3228" xmlns:xlink="http://www.w3.org/1999/xlink" width="64" height="64"><defs><style type="text/css"></style></defs><path d="M433.92 460.373333a23.04 23.04 0 0 0-23.04 23.04v213.333334a23.466667 23.466667 0 1 0 46.506667 0v-213.333334a23.04 23.04 0 0 0-23.466667-23.04zM584.96 460.373333a23.04 23.04 0 0 0-23.04 23.04v213.333334a23.466667 23.466667 0 1 0 46.506667 0v-213.333334a23.04 23.04 0 0 0-23.466667-23.04z" fill="#8a8a8a" p-id="3229"></path><path d="M787.2 304.213333h-159.146667V250.453333a49.493333 49.493333 0 0 0-49.493333-49.92h-137.813333a49.493333 49.493333 0 0 0-49.493334 49.92v53.76H231.68a23.04 23.04 0 0 0-23.04 23.466667 23.466667 23.466667 0 0 0 23.04 23.466667h42.666667V789.333333A66.986667 66.986667 0 0 0 341.333333 855.893333h332.8a67.413333 67.413333 0 0 0 67.84-66.56V351.146667h42.666667a23.466667 23.466667 0 0 0 26.026667-23.466667 23.466667 23.466667 0 0 0-23.466667-23.466667z m-346.453333-57.173333l140.373333 3.413333v53.76h-142.506667z m256 542.293333a20.053333 20.053333 0 0 1-20.906667 19.626667H341.333333a20.053333 20.053333 0 0 1-20.48-19.626667V351.146667h374.186667z" fill="#8a8a8a" p-id="3230"></path></svg>