<?xml version="1.0" standalone="no"?><!DOCTYPE svg PUBLIC "-//W3C//DTD SVG 1.1//EN" "http://www.w3.org/Graphics/SVG/1.1/DTD/svg11.dtd"><svg t="1648476965629" class="icon" viewBox="0 0 1024 1024" version="1.1" xmlns="http://www.w3.org/2000/svg" p-id="3018" xmlns:xlink="http://www.w3.org/1999/xlink" width="64" height="64"><defs><style type="text/css"></style></defs><path d="M460.8 803.84a360.533333 360.533333 0 1 1 360.533333-360.533333 360.96 360.96 0 0 1-360.533333 360.533333z m0-653.226667a293.12 293.12 0 1 0 293.12 292.693334 293.12 293.12 0 0 0-293.12-292.693334zM904.96 934.826667a33.28 33.28 0 0 1-23.893333-9.813334l-146.773334-145.493333a33.706667 33.706667 0 0 1 0-47.786667 33.28 33.28 0 0 1 47.36 0l147.2 145.493334a33.706667 33.706667 0 0 1 0 47.786666 32.426667 32.426667 0 0 1-23.893333 9.813334z" fill="#8a8a8a" p-id="3019"></path></svg>